<svg xmlns="http://www.w3.org/2000/svg" width="250" height="276" style="shape-rendering:geometricPrecision;text-rendering:geometricPrecision;image-rendering:optimizeQuality;fill-rule:evenodd;clip-rule:evenodd"><path style="opacity:1" fill="#5a5a76" d="M248.5 123.5c2.351 50.801-17.649 89.968-60 117.5-49.863 26.299-97.53 22.965-143-10-27.6924-23.553-43.02578-53.386-46-89.5v-21C7.71631 70.2413 35.383 35.408 82.5 16c35.608-11.21052 69.942-8.21052 103 9 37.016 22.5192 58.016 55.3525 63 98.5Z"/><path style="opacity:1" fill="#120f18" d="M161.5 95.5c-.553 4.982-.887 9.982-1 15-.934 1.068-1.268 2.401-1 4h5c13.671-.167 27.337 0 41 .5 4.644 1.448 6.644 4.615 6 9.5-1.631 19.767-4.131 39.434-7.5 59-1.503 6.002-5.336 9.336-11.5 10h-59c-7.23-.928-10.563-5.095-10-12.5 3.762-28.503 7.762-57.003 12-85.5-1.255-4.4367-3.589-8.27-7-11.5 9.505-1.1448 18.838-.4781 28 2 3.174 2.3811 4.841 5.5478 5 9.5Z"/><path style="opacity:1" fill="#13121a" d="M126.5 95.5c-2.282 20.809-5.449 41.475-9.5 62-.833 2.167-2.333 3.667-4.5 4.5-4.109.944-8.109 1.778-12 2.5h-8c-1.1491-.291-1.8158-1.124-2-2.5.6595-2.462.9928-4.962 1-7.5 3.0796-13.396 4.9129-27.063 5.5-41-2.2764 13.325-4.4431 26.659-6.5 40-.2377 3.638-1.9044 6.471-5 8.5-4.1092.944-8.1092 1.778-12 2.5h-1c-3.0448-.008-6.0448-.341-9-1 .5053-3.341.6719-6.674.5-10-.7142 3.604-2.5475 6.437-5.5 8.5-4.7954 2.033-9.7954 2.866-15 2.5-5.6764.166-11.3431-.001-17-.5 4.5-3.167 8.3333-7 11.5-11.5 2.2941-19.391 4.9607-38.725 8-58 1.1148-4.7452 3.9481-7.9119 8.5-9.5 21-.6667 42-.6667 63 0 6.427.5919 9.427 4.0919 9 10.5Z"/><path style="opacity:1" fill="#64526d" d="M155.5 93.5h-14c-.039-1.0832-.373-2.0832-1-3 3.959-1.1599 7.959-1.3265 12-.5 1.21 1.0391 2.21 2.2058 3 3.5Z"/><path style="opacity:1" fill="#585873" d="M120.5 93.5c-20.092-.4759-40.0923.0241-60 1.5-2.6059 1.9384-4.4392 4.4384-5.5 7.5-2.9499 18.623-5.4499 37.29-7.5 56-2.104.299-4.104-.034-6-1 3.9522-19.827 7.1189-39.827 9.5-60 .5163-2.5336 1.683-4.7002 3.5-6.5 21.6667-.6667 43.3333-.6667 65 0 .752.6708 1.086 1.5041 1 2.5Z"/><path style="opacity:1" fill="#ee0838" d="M141.5 94.5v-1h14c.245 8.75-.422 17.417-2 26h10v4h43c-1.704 19.095-4.204 38.095-7.5 57-.516 2.534-1.683 4.7-3.5 6.5-10.573 1.145-21.24 1.645-32 1.5-10.172 0-20.172-.334-30-1 3.338-28.199 7.005-56.366 11-84.5.454-3.4828-.546-6.3161-3-8.5Z"/><path style="opacity:1" fill="#f8f3f4" d="M120.5 93.5c-1.328 19.799-3.828 39.465-7.5 59-1.974 5.24-5.808 7.24-11.5 6 1.627-14.39 3.627-28.723 6-43h-4v-10c-3.018-.165-6.0184.002-9 .5l-1.5 1.5c-2.6085 14.589-4.9418 29.256-7 44-1.8583 5.515-5.6916 7.848-11.5 7 1.3855-14.366 3.0522-28.699 5-43h-4c.1159-3.36.4492-6.693 1-10-3.0184-.165-6.0184.002-9 .5-.7106 1.255-1.544 2.421-2.5 3.5-1.9639 15.083-4.2972 30.083-7 45-.5 1.833-1.6667 3-3.5 3.5-2.3098.497-4.6432.663-7 .5 2.0501-18.71 4.5501-37.377 7.5-56 1.0608-3.0616 2.8941-5.5616 5.5-7.5 19.9077-1.4759 39.908-1.9759 60-1.5Z"/><path style="opacity:1" fill="#595671" d="M141.5 94.5c2.454 2.1839 3.454 5.0172 3 8.5-3.995 28.134-7.662 56.301-11 84.5-1.322.17-2.489-.163-3.5-1-.667-4.667-.667-9.333 0-14 4.163-25.973 7.996-51.973 11.5-78Z"/><path style="opacity:1" fill="#f0ecee" d="M126.5 95.5c3.086 1.1544 4.419 3.4877 4 7-2.696 19.705-5.529 39.371-8.5 59-1.167 2.5-3 4.333-5.5 5.5-5.254 1.271-10.587 1.771-16 1.5v-4c3.891-.722 7.891-1.556 12-2.5 2.167-.833 3.667-2.333 4.5-4.5 4.051-20.525 7.218-41.191 9.5-62Z"/><path style="opacity:1" fill="#e4113a" d="M161.5 95.5c1.673.843 2.84 2.1763 3.5 4 .815 4.852.648 9.519-.5 14h-4v-3c.113-5.018.447-10.018 1-15Z"/><path style="opacity:1" fill="#9a092a" d="M160.5 110.5v3h4v1h-5c-.268-1.599.066-2.932 1-4Z"/><path style="opacity:1" fill="#5e5c62" d="M91.5 154.5c0-.667-.3333-1-1-1 2.0569-13.341 4.2236-26.675 6.5-40-.5871 13.937-2.4204 27.604-5.5 41Z"/><path style="opacity:1" fill="#53536e" d="M163.5 119.5c12.671-.167 25.338 0 38 .5 1.333.333 2.667.667 4 1 .752.671 1.086 1.504 1 2.5h-43v-4Z"/><path style="opacity:1" fill="#100d16" d="M188.5 138.5v7c-1.701 8.907-3.035 17.907-4 27h-28c-2.948.277-5.781-.056-8.5-1 .31-12.016 1.144-24.016 2.5-36 12.005-.167 24.005 0 36 .5.881.708 1.547 1.542 2 2.5Z"/><path style="opacity:1" fill="#99082a" d="M182.5 144.5v-3c-9.084-.304-18.084.029-27 1 8.94-1.972 18.273-2.639 28-2 .268 1.599-.066 2.932-1 4Z"/><path style="opacity:1" fill="#922e4a" d="M188.5 138.5c.961 1.765 1.295 3.765 1 6 1.291-.237 2.291.096 3 1h-4v-7Z"/><path style="opacity:1" fill="#55536e" d="M188.5 145.5h4c-1.47 10.288-2.47 20.621-3 31h-33v-4h28c.965-9.093 2.299-18.093 4-27Z"/><path style="opacity:1" fill="#595873" d="M182.5 145.5c-.398 7.287-1.398 14.454-3 21.5-7.326.5-14.659.666-22 .5.122-6.396.789-12.729 2-19 .904-.709 1.237-1.709 1-3h22Z"/><path style="opacity:1" fill="#884063" d="M182.5 144.5v1h-22c.237 1.291-.096 2.291-1 3v-4h23Z"/><path style="opacity:1" fill="#565672" d="M103.5 111.5v4h4c-2.373 14.277-4.373 28.61-6 43h-4c1.1686-15.908 3.169-31.575 6-47Z"/><path style="opacity:1" fill="#ea0636" d="M182.5 144.5h-23v4c-1.211 6.271-1.878 12.604-2 19h-5c.892-8.35 1.892-16.684 3-25 8.916-.971 17.916-1.304 27-1v3Z"/><path style="opacity:1" fill="#595974" d="M75.5 115.5h4c-1.9478 14.301-3.6145 28.634-5 43h-5c2.1925-14.347 4.1925-28.68 6-43Z"/><path style="opacity:1" fill="#f0eeee" d="M63.5 163.5c.4175.722 1.0842 1.222 2 1.5-1.7872 1.319-3.7872 2.152-6 2.5-6.19.323-12.19-.01-18-1 1-.333 1.6667-1 2-2 5.2046.366 10.2046-.467 15-2.5 2.9525-2.063 4.7858-4.896 5.5-8.5.1719 3.326.0053 6.659-.5 10Z"/><path style="opacity:1" fill="#edeaeb" d="M90.5 153.5c.6667 0 1 .333 1 1-.0072 2.538-.3405 5.038-1 7.5.1842 1.376.8509 2.209 2 2.5-1.8204 1.948-4.1538 2.948-7 3h-12v-3c3.8908-.722 7.8908-1.556 12-2.5 3.0956-2.029 4.7623-4.862 5-8.5Z"/><path style="opacity:1" fill="#aaa7b5" d="M41.5 166.5c5.81.99 11.81 1.323 18 1-6.1783 1.317-12.5117 1.317-19 0 .1236-.607.4569-.94 1-1Z"/><path style="opacity:1" fill="#a5a3b2" d="M72.5 164.5h1v3h12c-4.1344.985-8.4677 1.318-13 1v-4Z"/><path style="opacity:1" fill="#880928" d="M133.5 193.5h59c-19 .667-38 1.333-57 2-1-.333-1.667-1-2-2Z"/><path style="opacity:1" fill="#ef0938" d="M211.5 124.5c1.517.011 2.684.677 3.5 2-.875 19.749-2.875 39.416-6 59-.651 4.137-2.485 7.637-5.5 10.5-11.24 1.146-22.574 1.646-34 1.5-10.667-.167-21.333-.333-32-.5-.916-.278-1.582-.778-2-1.5 19-.667 38-1.333 57-2 6.164-.664 9.997-3.998 11.5-10 3.369-19.566 5.869-39.233 7.5-59Z"/></svg>